# xmcd
#
# Track frame offsets: 
#        150
#        18249
#        44487
#        65907
#        82809
#        107125
#        134149
#        150297
#        171422
#        196236
#
# Disc length: 2794 seconds
#
# Revision: 0
# Processed by: cddbd v1.5.2PL0 Copyright (c) Steve Scherf et al.
# Submitted via: ExactAudioCopy v1.0b1
#
DISCID=850ae80a
DTITLE=Scott Sanford - Scott Sanford
DYEAR=1900
DGENRE=Country
TTITLE0=The New Me
TTITLE1=For The Rest Of My Life
TTITLE2=I Got The Groove
TTITLE3=Twice In A Lifetime
TTITLE4=Constant Road
TTITLE5=Mercy
TTITLE6=The Na Na Song
TTITLE7=Why Can't You
TTITLE8=My You
TTITLE9=Turn It Up
EXTD=
EXTT0=
EXTT1=
EXTT2=
EXTT3=
EXTT4=
EXTT5=
EXTT6=
EXTT7=
EXTT8=
EXTT9=
PLAYORDER=
